<svg xmlns="http://www.w3.org/2000/svg" viewBox="0 0 1440 320">
  <path fill="#3f51b5" fill-opacity="1" d="M0,160L30,176C60,192,120,224,180,213.3C240,203,300,149,360,117.3C420,85,480,75,540,64C600,53,660,43,720,53.3C780,64,840,96,900,117.3C960,139,1020,149,1080,138.7C1140,128,1200,96,1260,96C1320,96,1380,128,1410,144L1440,160L1440,0L1410,0C1380,0,1320,0,1260,0C1200,0,1140,0,1080,0C1020,0,960,0,900,0C840,0,780,0,720,0C660,0,600,0,540,0C480,0,420,0,360,0C300,0,240,0,180,0C120,0,60,0,30,0L0,0Z"></path>
</svg>